v 0.000000 1.000000 0.000000
v 0.309017 0.951057 0.000000
v 0.282301 0.951057 0.125689
v 0.206773 0.951057 0.229644
v 0.095492 0.951057 0.293893
v -0.032301 0.951057 0.307324
v -0.154508 0.951057 0.267617
v -0.250000 0.951057 0.181636
v -0.302264 0.951057 0.064248
v -0.302264 0.951057 -0.064248
v -0.250000 0.951057 -0.181636
v -0.154508 0.951057 -0.267617
v -0.032301 0.951057 -0.307324
v 0.095492 0.951057 -0.293893
v 0.206773 0.951057 -0.229644
v 0.282301 0.951057 -0.125689
v 0.587785 0.809017 0.000000
v 0.536969 0.809017 0.239074
v 0.393305 0.809017 0.436810
v 0.181636 0.809017 0.559017
v -0.061440 0.809017 0.584565
v -0.293893 0.809017 0.509037
v -0.475528 0.809017 0.345492
v -0.574941 0.809017 0.122207
v -0.574941 0.809017 -0.122207
v -0.475528 0.809017 -0.345492
v -0.293893 0.809017 -0.509037
v -0.061440 0.809017 -0.584565
v 0.181636 0.809017 -0.559017
v 0.393305 0.809017 -0.436810
v 0.536969 0.809017 -0.239074
v 0.809017 0.587785 0.000000
v 0.739074 0.587785 0.329057
v 0.541338 0.587785 0.601217
v 0.250000 0.587785 0.769421
v -0.084565 0.587785 0.804585
v -0.404508 0.587785 0.700629
v -0.654508 0.587785 0.475528
v -0.791338 0.587785 0.168204
v -0.791338 0.587785 -0.168204
v -0.654508 0.587785 -0.475528
v -0.404508 0.587785 -0.700629
v -0.084565 0.587785 -0.804585
v 0.250000 0.587785 -0.769421
v 0.541338 0.587785 -0.601217
v 0.739074 0.587785 -0.329057
v 0.951057 0.309017 0.000000
v 0.868833 0.309017 0.386830
v 0.636381 0.309017 0.706773
v 0.293893 0.309017 0.904508
v -0.099412 0.309017 0.945847
v -0.475528 0.309017 0.823639
v -0.769421 0.309017 0.559017
v -0.930274 0.309017 0.197736
v -0.930274 0.309017 -0.197736
v -0.769421 0.309017 -0.559017
v -0.475528 0.309017 -0.823639
v -0.099412 0.309017 -0.945847
v 0.293893 0.309017 -0.904508
v 0.636381 0.309017 -0.706773
v 0.868833 0.309017 -0.386830
v 1.000000 0.000000 0.000000
v 0.913545 0.000000 0.406737
v 0.669131 0.000000 0.743145
v 0.309017 0.000000 0.951057
v -0.104528 0.000000 0.994522
v -0.500000 0.000000 0.866025
v -0.809017 0.000000 0.587785
v -0.978148 0.000000 0.207912
v -0.978148 0.000000 -0.207912
v -0.809017 0.000000 -0.587785
v -0.500000 0.000000 -0.866025
v -0.104528 0.000000 -0.994522
v 0.309017 0.000000 -0.951057
v 0.669131 0.000000 -0.743145
v 0.913545 0.000000 -0.406737
v 0.951057 -0.309017 0.000000
v 0.868833 -0.309017 0.386830
v 0.636381 -0.309017 0.706773
v 0.293893 -0.309017 0.904508
v -0.099412 -0.309017 0.945847
v -0.475528 -0.309017 0.823639
v -0.769421 -0.309017 0.559017
v -0.930274 -0.309017 0.197736
v -0.930274 -0.309017 -0.197736
v -0.769421 -0.309017 -0.559017
v -0.475528 -0.309017 -0.823639
v -0.099412 -0.309017 -0.945847
v 0.293893 -0.309017 -0.904508
v 0.636381 -0.309017 -0.706773
v 0.868833 -0.309017 -0.386830
v 0.809017 -0.587785 0.000000
v 0.739074 -0.587785 0.329057
v 0.541338 -0.587785 0.601217
v 0.250000 -0.587785 0.769421
v -0.084565 -0.587785 0.804585
v -0.404508 -0.587785 0.700629
v -0.654508 -0.587785 0.475528
v -0.791338 -0.587785 0.168204
v -0.791338 -0.587785 -0.168204
v -0.654508 -0.587785 -0.475528
v -0.404508 -0.587785 -0.700629
v -0.084565 -0.587785 -0.804585
v 0.250000 -0.587785 -0.769421
v 0.541338 -0.587785 -0.601217
v 0.739074 -0.587785 -0.329057
v 0.587785 -0.809017 0.000000
v 0.536969 -0.809017 0.239074
v 0.393305 -0.809017 0.436810
v 0.181636 -0.809017 0.559017
v -0.061440 -0.809017 0.584565
v -0.293893 -0.809017 0.509037
v -0.475528 -0.809017 0.345492
v -0.574941 -0.809017 0.122207
v -0.574941 -0.809017 -0.122207
v -0.475528 -0.809017 -0.345492
v -0.293893 -0.809017 -0.509037
v -0.061440 -0.809017 -0.584565
v 0.181636 -0.809017 -0.559017
v 0.393305 -0.809017 -0.436810
v 0.536969 -0.809017 -0.239074
v 0.309017 -0.951057 0.000000
v 0.282301 -0.951057 0.125689
v 0.206773 -0.951057 0.229644
v 0.095492 -0.951057 0.293893
v -0.032301 -0.951057 0.307324
v -0.154508 -0.951057 0.267617
v -0.250000 -0.951057 0.181636
v -0.302264 -0.951057 0.064248
v -0.302264 -0.951057 -0.064248
v -0.250000 -0.951057 -0.181636
v -0.154508 -0.951057 -0.267617
v -0.032301 -0.951057 -0.307324
v 0.095492 -0.951057 -0.293893
v 0.206773 -0.951057 -0.229644
v 0.282301 -0.951057 -0.125689
v 0.000000 -1.000000 0.000000

f 0 2 1
f 0 3 2
f 0 4 3
f 0 5 4
f 0 6 5
f 0 7 6
f 0 8 7
f 0 9 8
f 0 10 9
f 0 11 10
f 0 12 11
f 0 13 12
f 0 14 13
f 0 15 14
f 0 1 15
f 1 2 16
f 2 17 16
f 2 3 17
f 3 18 17
f 3 4 18
f 4 19 18
f 4 5 19
f 5 20 19
f 5 6 20
f 6 21 20
f 6 7 21
f 7 22 21
f 7 8 22
f 8 23 22
f 8 9 23
f 9 24 23
f 9 10 24
f 10 25 24
f 10 11 25
f 11 26 25
f 11 12 26
f 12 27 26
f 12 13 27
f 13 28 27
f 13 14 28
f 14 29 28
f 14 15 29
f 15 30 29
f 15 1 30
f 1 16 30
f 16 17 31
f 17 32 31
f 17 18 32
f 18 33 32
f 18 19 33
f 19 34 33
f 19 20 34
f 20 35 34
f 20 21 35
f 21 36 35
f 21 22 36
f 22 37 36
f 22 23 37
f 23 38 37
f 23 24 38
f 24 39 38
f 24 25 39
f 25 40 39
f 25 26 40
f 26 41 40
f 26 27 41
f 27 42 41
f 27 28 42
f 28 43 42
f 28 29 43
f 29 44 43
f 29 30 44
f 30 45 44
f 30 16 45
f 16 31 45
f 31 32 46
f 32 47 46
f 32 33 47
f 33 48 47
f 33 34 48
f 34 49 48
f 34 35 49
f 35 50 49
f 35 36 50
f 36 51 50
f 36 37 51
f 37 52 51
f 37 38 52
f 38 53 52
f 38 39 53
f 39 54 53
f 39 40 54
f 40 55 54
f 40 41 55
f 41 56 55
f 41 42 56
f 42 57 56
f 42 43 57
f 43 58 57
f 43 44 58
f 44 59 58
f 44 45 59
f 45 60 59
f 45 31 60
f 31 46 60
f 46 47 61
f 47 62 61
f 47 48 62
f 48 63 62
f 48 49 63
f 49 64 63
f 49 50 64
f 50 65 64
f 50 51 65
f 51 66 65
f 51 52 66
f 52 67 66
f 52 53 67
f 53 68 67
f 53 54 68
f 54 69 68
f 54 55 69
f 55 70 69
f 55 56 70
f 56 71 70
f 56 57 71
f 57 72 71
f 57 58 72
f 58 73 72
f 58 59 73
f 59 74 73
f 59 60 74
f 60 75 74
f 60 46 75
f 46 61 75
f 61 62 76
f 62 77 76
f 62 63 77
f 63 78 77
f 63 64 78
f 64 79 78
f 64 65 79
f 65 80 79
f 65 66 80
f 66 81 80
f 66 67 81
f 67 82 81
f 67 68 82
f 68 83 82
f 68 69 83
f 69 84 83
f 69 70 84
f 70 85 84
f 70 71 85
f 71 86 85
f 71 72 86
f 72 87 86
f 72 73 87
f 73 88 87
f 73 74 88
f 74 89 88
f 74 75 89
f 75 90 89
f 75 61 90
f 61 76 90
f 76 77 91
f 77 92 91
f 77 78 92
f 78 93 92
f 78 79 93
f 79 94 93
f 79 80 94
f 80 95 94
f 80 81 95
f 81 96 95
f 81 82 96
f 82 97 96
f 82 83 97
f 83 98 97
f 83 84 98
f 84 99 98
f 84 85 99
f 85 100 99
f 85 86 100
f 86 101 100
f 86 87 101
f 87 102 101
f 87 88 102
f 88 103 102
f 88 89 103
f 89 104 103
f 89 90 104
f 90 105 104
f 90 76 105
f 76 91 105
f 91 92 106
f 92 107 106
f 92 93 107
f 93 108 107
f 93 94 108
f 94 109 108
f 94 95 109
f 95 110 109
f 95 96 110
f 96 111 110
f 96 97 111
f 97 112 111
f 97 98 112
f 98 113 112
f 98 99 113
f 99 114 113
f 99 100 114
f 100 115 114
f 100 101 115
f 101 116 115
f 101 102 116
f 102 117 116
f 102 103 117
f 103 118 117
f 103 104 118
f 104 119 118
f 104 105 119
f 105 120 119
f 105 91 120
f 91 106 120
f 106 107 121
f 107 122 121
f 107 108 122
f 108 123 122
f 108 109 123
f 109 124 123
f 109 110 124
f 110 125 124
f 110 111 125
f 111 126 125
f 111 112 126
f 112 127 126
f 112 113 127
f 113 128 127
f 113 114 128
f 114 129 128
f 114 115 129
f 115 130 129
f 115 116 130
f 116 131 130
f 116 117 131
f 117 132 131
f 117 118 132
f 118 133 132
f 118 119 133
f 119 134 133
f 119 120 134
f 120 135 134
f 120 106 135
f 106 121 135
f 121 136 122
f 122 136 123
f 123 136 124
f 124 136 125
f 125 136 126
f 126 136 127
f 127 136 128
f 128 136 129
f 129 136 130
f 130 136 131
f 131 136 132
f 132 136 133
f 133 136 134
f 134 136 135
f 135 136 121