v 0.000000 1.000000 0.000000
v 0.156434 0.987688 0.000000
v 0.153016 0.987688 0.032525
v 0.142910 0.987688 0.063628
v 0.126558 0.987688 0.091950
v 0.104675 0.987688 0.116253
v 0.078217 0.987688 0.135476
v 0.048341 0.987688 0.148778
v 0.016352 0.987688 0.155578
v -0.016352 0.987688 0.155578
v -0.048341 0.987688 0.148778
v -0.078217 0.987688 0.135476
v -0.104675 0.987688 0.116253
v -0.126558 0.987688 0.091950
v -0.142910 0.987688 0.063628
v -0.153016 0.987688 0.032525
v -0.156434 0.987688 0.000000
v -0.153016 0.987688 -0.032525
v -0.142910 0.987688 -0.063628
v -0.126558 0.987688 -0.091950
v -0.104675 0.987688 -0.116253
v -0.078217 0.987688 -0.135476
v -0.048341 0.987688 -0.148778
v -0.016352 0.987688 -0.155578
v 0.016352 0.987688 -0.155578
v 0.048341 0.987688 -0.148778
v 0.078217 0.987688 -0.135476
v 0.104675 0.987688 -0.116253
v 0.126558 0.987688 -0.091950
v 0.142910 0.987688 -0.063628
v 0.153016 0.987688 -0.032525
v 0.309017 0.951057 0.000000
v 0.302264 0.951057 0.064248
v 0.282301 0.951057 0.125689
v 0.250000 0.951057 0.181636
v 0.206773 0.951057 0.229644
v 0.154508 0.951057 0.267617
v 0.095492 0.951057 0.293893
v 0.032301 0.951057 0.307324
v -0.032301 0.951057 0.307324
v -0.095492 0.951057 0.293893
v -0.154508 0.951057 0.267617
v -0.206773 0.951057 0.229644
v -0.250000 0.951057 0.181636
v -0.282301 0.951057 0.125689
v -0.302264 0.951057 0.064248
v -0.309017 0.951057 0.000000
v -0.302264 0.951057 -0.064248
v -0.282301 0.951057 -0.125689
v -0.250000 0.951057 -0.181636
v -0.206773 0.951057 -0.229644
v -0.154508 0.951057 -0.267617
v -0.095492 0.951057 -0.293893
v -0.032301 0.951057 -0.307324
v 0.032301 0.951057 -0.307324
v 0.095492 0.951057 -0.293893
v 0.154508 0.951057 -0.267617
v 0.206773 0.951057 -0.229644
v 0.250000 0.951057 -0.181636
v 0.282301 0.951057 -0.125689
v 0.302264 0.951057 -0.064248
v 0.453990 0.891007 0.000000
v 0.444070 0.891007 0.094390
v 0.414741 0.891007 0.184655
v 0.367286 0.891007 0.266849
v 0.303779 0.891007 0.337381
v 0.226995 0.891007 0.393167
v 0.140291 0.891007 0.431771
v 0.047455 0.891007 0.451503
v -0.047455 0.891007 0.451503
v -0.140291 0.891007 0.431771
v -0.226995 0.891007 0.393167
v -0.303779 0.891007 0.337381
v -0.367286 0.891007 0.266849
v -0.414741 0.891007 0.184655
v -0.444070 0.891007 0.094390
v -0.453990 0.891007 0.000000
v -0.444070 0.891007 -0.094390
v -0.414741 0.891007 -0.184655
v -0.367286 0.891007 -0.266849
v -0.303779 0.891007 -0.337381
v -0.226995 0.891007 -0.393167
v -0.140291 0.891007 -0.431771
v -0.047455 0.891007 -0.451503
v 0.047455 0.891007 -0.451503
v 0.140291 0.891007 -0.431771
v 0.226995 0.891007 -0.393167
v 0.303779 0.891007 -0.337381
v 0.367286 0.891007 -0.266849
v 0.414741 0.891007 -0.184655
v 0.444070 0.891007 -0.094390
v 0.587785 0.809017 0.000000
v 0.574941 0.809017 0.122207
v 0.536969 0.809017 0.239074
v 0.475528 0.809017 0.345492
v 0.393305 0.809017 0.436810
v 0.293893 0.809017 0.509037
v 0.181636 0.809017 0.559017
v 0.061440 0.809017 0.584565
v -0.061440 0.809017 0.584565
v -0.181636 0.809017 0.559017
v -0.293893 0.809017 0.509037
v -0.393305 0.809017 0.436810
v -0.475528 0.809017 0.345492
v -0.536969 0.809017 0.239074
v -0.574941 0.809017 0.122207
v -0.587785 0.809017 0.000000
v -0.574941 0.809017 -0.122207
v -0.536969 0.809017 -0.239074
v -0.475528 0.809017 -0.345492
v -0.393305 0.809017 -0.436810
v -0.293893 0.809017 -0.509037
v -0.181636 0.809017 -0.559017
v -0.061440 0.809017 -0.584565
v 0.061440 0.809017 -0.584565
v 0.181636 0.809017 -0.559017
v 0.293893 0.809017 -0.509037
v 0.393305 0.809017 -0.436810
v 0.475528 0.809017 -0.345492
v 0.536969 0.809017 -0.239074
v 0.574941 0.809017 -0.122207
v 0.707107 0.707107 0.000000
v 0.691655 0.707107 0.147016
v 0.645974 0.707107 0.287606
v 0.572061 0.707107 0.415627
v 0.473147 0.707107 0.525483
v 0.353553 0.707107 0.612372
v 0.218508 0.707107 0.672499
v 0.073913 0.707107 0.703233
v -0.073913 0.707107 0.703233
v -0.218508 0.707107 0.672499
v -0.353553 0.707107 0.612372
v -0.473147 0.707107 0.525483
v -0.572061 0.707107 0.415627
v -0.645974 0.707107 0.287606
v -0.691655 0.707107 0.147016
v -0.707107 0.707107 0.000000
v -0.691655 0.707107 -0.147016
v -0.645974 0.707107 -0.287606
v -0.572061 0.707107 -0.415627
v -0.473147 0.707107 -0.525483
v -0.353553 0.707107 -0.612372
v -0.218508 0.707107 -0.672499
v -0.073913 0.707107 -0.703233
v 0.073913 0.707107 -0.703233
v 0.218508 0.707107 -0.672499
v 0.353553 0.707107 -0.612372
v 0.473147 0.707107 -0.525483
v 0.572061 0.707107 -0.415627
v 0.645974 0.707107 -0.287606
v 0.691655 0.707107 -0.147016
v 0.809017 0.587785 0.000000
v 0.791338 0.587785 0.168204
v 0.739074 0.587785 0.329057
v 0.654508 0.587785 0.475528
v 0.541338 0.587785 0.601217
v 0.404508 0.587785 0.700629
v 0.250000 0.587785 0.769421
v 0.084565 0.587785 0.804585
v -0.084565 0.587785 0.804585
v -0.250000 0.587785 0.769421
v -0.404508 0.587785 0.700629
v -0.541338 0.587785 0.601217
v -0.654508 0.587785 0.475528
v -0.739074 0.587785 0.329057
v -0.791338 0.587785 0.168204
v -0.809017 0.587785 0.000000
v -0.791338 0.587785 -0.168204
v -0.739074 0.587785 -0.329057
v -0.654508 0.587785 -0.475528
v -0.541338 0.587785 -0.601217
v -0.404508 0.587785 -0.700629
v -0.250000 0.587785 -0.769421
v -0.084565 0.587785 -0.804585
v 0.084565 0.587785 -0.804585
v 0.250000 0.587785 -0.769421
v 0.404508 0.587785 -0.700629
v 0.541338 0.587785 -0.601217
v 0.654508 0.587785 -0.475528
v 0.739074 0.587785 -0.329057
v 0.791338 0.587785 -0.168204
v 0.891007 0.453990 0.000000
v 0.871536 0.453990 0.185251
v 0.813975 0.453990 0.362405
v 0.720839 0.453990 0.523720
v 0.596200 0.453990 0.662147
v 0.445503 0.453990 0.771634
v 0.275336 0.453990 0.847398
v 0.093136 0.453990 0.886125
v -0.093136 0.453990 0.886125
v -0.275336 0.453990 0.847398
v -0.445503 0.453990 0.771634
v -0.596200 0.453990 0.662147
v -0.720839 0.453990 0.523720
v -0.813975 0.453990 0.362405
v -0.871536 0.453990 0.185251
v -0.891007 0.453990 0.000000
v -0.871536 0.453990 -0.185251
v -0.813975 0.453990 -0.362405
v -0.720839 0.453990 -0.523720
v -0.596200 0.453990 -0.662147
v -0.445503 0.453990 -0.771634
v -0.275336 0.453990 -0.847398
v -0.093136 0.453990 -0.886125
v 0.093136 0.453990 -0.886125
v 0.275336 0.453990 -0.847398
v 0.445503 0.453990 -0.771634
v 0.596200 0.453990 -0.662147
v 0.720839 0.453990 -0.523720
v 0.813975 0.453990 -0.362405
v 0.871536 0.453990 -0.185251
v 0.951057 0.309017 0.000000
v 0.930274 0.309017 0.197736
v 0.868833 0.309017 0.386830
v 0.769421 0.309017 0.559017
v 0.636381 0.309017 0.706773
v 0.475528 0.309017 0.823639
v 0.293893 0.309017 0.904508
v 0.099412 0.309017 0.945847
v -0.099412 0.309017 0.945847
v -0.293893 0.309017 0.904508
v -0.475528 0.309017 0.823639
v -0.636381 0.309017 0.706773
v -0.769421 0.309017 0.559017
v -0.868833 0.309017 0.386830
v -0.930274 0.309017 0.197736
v -0.951057 0.309017 0.000000
v -0.930274 0.309017 -0.197736
v -0.868833 0.309017 -0.386830
v -0.769421 0.309017 -0.559017
v -0.636381 0.309017 -0.706773
v -0.475528 0.309017 -0.823639
v -0.293893 0.309017 -0.904508
v -0.099412 0.309017 -0.945847
v 0.099412 0.309017 -0.945847
v 0.293893 0.309017 -0.904508
v 0.475528 0.309017 -0.823639
v 0.636381 0.309017 -0.706773
v 0.769421 0.309017 -0.559017
v 0.868833 0.309017 -0.386830
v 0.930274 0.309017 -0.197736
v 0.987688 0.156434 0.000000
v 0.966105 0.156434 0.205352
v 0.902298 0.156434 0.401729
v 0.799057 0.156434 0.580549
v 0.660892 0.156434 0.733995
v 0.493844 0.156434 0.855363
v 0.305212 0.156434 0.939347
v 0.103242 0.156434 0.982278
v -0.103242 0.156434 0.982278
v -0.305212 0.156434 0.939347
v -0.493844 0.156434 0.855363
v -0.660892 0.156434 0.733995
v -0.799057 0.156434 0.580549
v -0.902298 0.156434 0.401729
v -0.966105 0.156434 0.205352
v -0.987688 0.156434 0.000000
v -0.966105 0.156434 -0.205352
v -0.902298 0.156434 -0.401729
v -0.799057 0.156434 -0.580549
v -0.660892 0.156434 -0.733995
v -0.493844 0.156434 -0.855363
v -0.305212 0.156434 -0.939347
v -0.103242 0.156434 -0.982278
v 0.103242 0.156434 -0.982278
v 0.305212 0.156434 -0.939347
v 0.493844 0.156434 -0.855363
v 0.660892 0.156434 -0.733995
v 0.799057 0.156434 -0.580549
v 0.902298 0.156434 -0.401729
v 0.966105 0.156434 -0.205352
v 1.000000 0.000000 0.000000
v 0.978148 0.000000 0.207912
v 0.913545 0.000000 0.406737
v 0.809017 0.000000 0.587785
v 0.669131 0.000000 0.743145
v 0.500000 0.000000 0.866025
v 0.309017 0.000000 0.951057
v 0.104528 0.000000 0.994522
v -0.104528 0.000000 0.994522
v -0.309017 0.000000 0.951057
v -0.500000 0.000000 0.866025
v -0.669131 0.000000 0.743145
v -0.809017 0.000000 0.587785
v -0.913545 0.000000 0.406737
v -0.978148 0.000000 0.207912
v -1.000000 0.000000 0.000000
v -0.978148 0.000000 -0.207912
v -0.913545 0.000000 -0.406737
v -0.809017 0.000000 -0.587785
v -0.669131 0.000000 -0.743145
v -0.500000 0.000000 -0.866025
v -0.309017 0.000000 -0.951057
v -0.104528 0.000000 -0.994522
v 0.104528 0.000000 -0.994522
v 0.309017 0.000000 -0.951057
v 0.500000 0.000000 -0.866025
v 0.669131 0.000000 -0.743145
v 0.809017 0.000000 -0.587785
v 0.913545 0.000000 -0.406737
v 0.978148 0.000000 -0.207912
v 0.987688 -0.156434 0.000000
v 0.966105 -0.156434 0.205352
v 0.902298 -0.156434 0.401729
v 0.799057 -0.156434 0.580549
v 0.660892 -0.156434 0.733995
v 0.493844 -0.156434 0.855363
v 0.305212 -0.156434 0.939347
v 0.103242 -0.156434 0.982278
v -0.103242 -0.156434 0.982278
v -0.305212 -0.156434 0.939347
v -0.493844 -0.156434 0.855363
v -0.660892 -0.156434 0.733995
v -0.799057 -0.156434 0.580549
v -0.902298 -0.156434 0.401729
v -0.966105 -0.156434 0.205352
v -0.987688 -0.156434 0.000000
v -0.966105 -0.156434 -0.205352
v -0.902298 -0.156434 -0.401729
v -0.799057 -0.156434 -0.580549
v -0.660892 -0.156434 -0.733995
v -0.493844 -0.156434 -0.855363
v -0.305212 -0.156434 -0.939347
v -0.103242 -0.156434 -0.982278
v 0.103242 -0.156434 -0.982278
v 0.305212 -0.156434 -0.939347
v 0.493844 -0.156434 -0.855363
v 0.660892 -0.156434 -0.733995
v 0.799057 -0.156434 -0.580549
v 0.902298 -0.156434 -0.401729
v 0.966105 -0.156434 -0.205352
v 0.951057 -0.309017 0.000000
v 0.930274 -0.309017 0.197736
v 0.868833 -0.309017 0.386830
v 0.769421 -0.309017 0.559017
v 0.636381 -0.309017 0.706773
v 0.475528 -0.309017 0.823639
v 0.293893 -0.309017 0.904508
v 0.099412 -0.309017 0.945847
v -0.099412 -0.309017 0.945847
v -0.293893 -0.309017 0.904508
v -0.475528 -0.309017 0.823639
v -0.636381 -0.309017 0.706773
v -0.769421 -0.309017 0.559017
v -0.868833 -0.309017 0.386830
v -0.930274 -0.309017 0.197736
v -0.951057 -0.309017 0.000000
v -0.930274 -0.309017 -0.197736
v -0.868833 -0.309017 -0.386830
v -0.769421 -0.309017 -0.559017
v -0.636381 -0.309017 -0.706773
v -0.475528 -0.309017 -0.823639
v -0.293893 -0.309017 -0.904508
v -0.099412 -0.309017 -0.945847
v 0.099412 -0.309017 -0.945847
v 0.293893 -0.309017 -0.904508
v 0.475528 -0.309017 -0.823639
v 0.636381 -0.309017 -0.706773
v 0.769421 -0.309017 -0.559017
v 0.868833 -0.309017 -0.386830
v 0.930274 -0.309017 -0.197736
v 0.891007 -0.453990 0.000000
v 0.871536 -0.453990 0.185251
v 0.813975 -0.453990 0.362405
v 0.720839 -0.453990 0.523720
v 0.596200 -0.453990 0.662147
v 0.445503 -0.453990 0.771634
v 0.275336 -0.453990 0.847398
v 0.093136 -0.453990 0.886125
v -0.093136 -0.453990 0.886125
v -0.275336 -0.453990 0.847398
v -0.445503 -0.453990 0.771634
v -0.596200 -0.453990 0.662147
v -0.720839 -0.453990 0.523720
v -0.813975 -0.453990 0.362405
v -0.871536 -0.453990 0.185251
v -0.891007 -0.453990 0.000000
v -0.871536 -0.453990 -0.185251
v -0.813975 -0.453990 -0.362405
v -0.720839 -0.453990 -0.523720
v -0.596200 -0.453990 -0.662147
v -0.445503 -0.453990 -0.771634
v -0.275336 -0.453990 -0.847398
v -0.093136 -0.453990 -0.886125
v 0.093136 -0.453990 -0.886125
v 0.275336 -0.453990 -0.847398
v 0.445503 -0.453990 -0.771634
v 0.596200 -0.453990 -0.662147
v 0.720839 -0.453990 -0.523720
v 0.813975 -0.453990 -0.362405
v 0.871536 -0.453990 -0.185251
v 0.809017 -0.587785 0.000000
v 0.791338 -0.587785 0.168204
v 0.739074 -0.587785 0.329057
v 0.654508 -0.587785 0.475528
v 0.541338 -0.587785 0.601217
v 0.404508 -0.587785 0.700629
v 0.250000 -0.587785 0.769421
v 0.084565 -0.587785 0.804585
v -0.084565 -0.587785 0.804585
v -0.250000 -0.587785 0.769421
v -0.404508 -0.587785 0.700629
v -0.541338 -0.587785 0.601217
v -0.654508 -0.587785 0.475528
v -0.739074 -0.587785 0.329057
v -0.791338 -0.587785 0.168204
v -0.809017 -0.587785 0.000000
v -0.791338 -0.587785 -0.168204
v -0.739074 -0.587785 -0.329057
v -0.654508 -0.587785 -0.475528
v -0.541338 -0.587785 -0.601217
v -0.404508 -0.587785 -0.700629
v -0.250000 -0.587785 -0.769421
v -0.084565 -0.587785 -0.804585
v 0.084565 -0.587785 -0.804585
v 0.250000 -0.587785 -0.769421
v 0.404508 -0.587785 -0.700629
v 0.541338 -0.587785 -0.601217
v 0.654508 -0.587785 -0.475528
v 0.739074 -0.587785 -0.329057
v 0.791338 -0.587785 -0.168204
v 0.707107 -0.707107 0.000000
v 0.691655 -0.707107 0.147016
v 0.645974 -0.707107 0.287606
v 0.572061 -0.707107 0.415627
v 0.473147 -0.707107 0.525483
v 0.353553 -0.707107 0.612372
v 0.218508 -0.707107 0.672499
v 0.073913 -0.707107 0.703233
v -0.073913 -0.707107 0.703233
v -0.218508 -0.707107 0.672499
v -0.353553 -0.707107 0.612372
v -0.473147 -0.707107 0.525483
v -0.572061 -0.707107 0.415627
v -0.645974 -0.707107 0.287606
v -0.691655 -0.707107 0.147016
v -0.707107 -0.707107 0.000000
v -0.691655 -0.707107 -0.147016
v -0.645974 -0.707107 -0.287606
v -0.572061 -0.707107 -0.415627
v -0.473147 -0.707107 -0.525483
v -0.353553 -0.707107 -0.612372
v -0.218508 -0.707107 -0.672499
v -0.073913 -0.707107 -0.703233
v 0.073913 -0.707107 -0.703233
v 0.218508 -0.707107 -0.672499
v 0.353553 -0.707107 -0.612372
v 0.473147 -0.707107 -0.525483
v 0.572061 -0.707107 -0.415627
v 0.645974 -0.707107 -0.287606
v 0.691655 -0.707107 -0.147016
v 0.587785 -0.809017 0.000000
v 0.574941 -0.809017 0.122207
v 0.536969 -0.809017 0.239074
v 0.475528 -0.809017 0.345492
v 0.393305 -0.809017 0.436810
v 0.293893 -0.809017 0.509037
v 0.181636 -0.809017 0.559017
v 0.061440 -0.809017 0.584565
v -0.061440 -0.809017 0.584565
v -0.181636 -0.809017 0.559017
v -0.293893 -0.809017 0.509037
v -0.393305 -0.809017 0.436810
v -0.475528 -0.809017 0.345492
v -0.536969 -0.809017 0.239074
v -0.574941 -0.809017 0.122207
v -0.587785 -0.809017 0.000000
v -0.574941 -0.809017 -0.122207
v -0.536969 -0.809017 -0.239074
v -0.475528 -0.809017 -0.345492
v -0.393305 -0.809017 -0.436810
v -0.293893 -0.809017 -0.509037
v -0.181636 -0.809017 -0.559017
v -0.061440 -0.809017 -0.584565
v 0.061440 -0.809017 -0.584565
v 0.181636 -0.809017 -0.559017
v 0.293893 -0.809017 -0.509037
v 0.393305 -0.809017 -0.436810
v 0.475528 -0.809017 -0.345492
v 0.536969 -0.809017 -0.239074
v 0.574941 -0.809017 -0.122207
v 0.453990 -0.891007 0.000000
v 0.444070 -0.891007 0.094390
v 0.414741 -0.891007 0.184655
v 0.367286 -0.891007 0.266849
v 0.303779 -0.891007 0.337381
v 0.226995 -0.891007 0.393167
v 0.140291 -0.891007 0.431771
v 0.047455 -0.891007 0.451503
v -0.047455 -0.891007 0.451503
v -0.140291 -0.891007 0.431771
v -0.226995 -0.891007 0.393167
v -0.303779 -0.891007 0.337381
v -0.367286 -0.891007 0.266849
v -0.414741 -0.891007 0.184655
v -0.444070 -0.891007 0.094390
v -0.453990 -0.891007 0.000000
v -0.444070 -0.891007 -0.094390
v -0.414741 -0.891007 -0.184655
v -0.367286 -0.891007 -0.266849
v -0.303779 -0.891007 -0.337381
v -0.226995 -0.891007 -0.393167
v -0.140291 -0.891007 -0.431771
v -0.047455 -0.891007 -0.451503
v 0.047455 -0.891007 -0.451503
v 0.140291 -0.891007 -0.431771
v 0.226995 -0.891007 -0.393167
v 0.303779 -0.891007 -0.337381
v 0.367286 -0.891007 -0.266849
v 0.414741 -0.891007 -0.184655
v 0.444070 -0.891007 -0.094390
v 0.309017 -0.951057 0.000000
v 0.302264 -0.951057 0.064248
v 0.282301 -0.951057 0.125689
v 0.250000 -0.951057 0.181636
v 0.206773 -0.951057 0.229644
v 0.154508 -0.951057 0.267617
v 0.095492 -0.951057 0.293893
v 0.032301 -0.951057 0.307324
v -0.032301 -0.951057 0.307324
v -0.095492 -0.951057 0.293893
v -0.154508 -0.951057 0.267617
v -0.206773 -0.951057 0.229644
v -0.250000 -0.951057 0.181636
v -0.282301 -0.951057 0.125689
v -0.302264 -0.951057 0.064248
v -0.309017 -0.951057 0.000000
v -0.302264 -0.951057 -0.064248
v -0.282301 -0.951057 -0.125689
v -0.250000 -0.951057 -0.181636
v -0.206773 -0.951057 -0.229644
v -0.154508 -0.951057 -0.267617
v -0.095492 -0.951057 -0.293893
v -0.032301 -0.951057 -0.307324
v 0.032301 -0.951057 -0.307324
v 0.095492 -0.951057 -0.293893
v 0.154508 -0.951057 -0.267617
v 0.206773 -0.951057 -0.229644
v 0.250000 -0.951057 -0.181636
v 0.282301 -0.951057 -0.125689
v 0.302264 -0.951057 -0.064248
v 0.156434 -0.987688 0.000000
v 0.153016 -0.987688 0.032525
v 0.142910 -0.987688 0.063628
v 0.126558 -0.987688 0.091950
v 0.104675 -0.987688 0.116253
v 0.078217 -0.987688 0.135476
v 0.048341 -0.987688 0.148778
v 0.016352 -0.987688 0.155578
v -0.016352 -0.987688 0.155578
v -0.048341 -0.987688 0.148778
v -0.078217 -0.987688 0.135476
v -0.104675 -0.987688 0.116253
v -0.126558 -0.987688 0.091950
v -0.142910 -0.987688 0.063628
v -0.153016 -0.987688 0.032525
v -0.156434 -0.987688 0.000000
v -0.153016 -0.987688 -0.032525
v -0.142910 -0.987688 -0.063628
v -0.126558 -0.987688 -0.091950
v -0.104675 -0.987688 -0.116253
v -0.078217 -0.987688 -0.135476
v -0.048341 -0.987688 -0.148778
v -0.016352 -0.987688 -0.155578
v 0.016352 -0.987688 -0.155578
v 0.048341 -0.987688 -0.148778
v 0.078217 -0.987688 -0.135476
v 0.104675 -0.987688 -0.116253
v 0.126558 -0.987688 -0.091950
v 0.142910 -0.987688 -0.063628
v 0.153016 -0.987688 -0.032525
v 0.000000 -1.000000 0.000000

f 0 2 1
f 0 3 2
f 0 4 3
f 0 5 4
f 0 6 5
f 0 7 6
f 0 8 7
f 0 9 8
f 0 10 9
f 0 11 10
f 0 12 11
f 0 13 12
f 0 14 13
f 0 15 14
f 0 16 15
f 0 17 16
f 0 18 17
f 0 19 18
f 0 20 19
f 0 21 20
f 0 22 21
f 0 23 22
f 0 24 23
f 0 25 24
f 0 26 25
f 0 27 26
f 0 28 27
f 0 29 28
f 0 30 29
f 0 1 30
f 1 2 31
f 2 32 31
f 2 3 32
f 3 33 32
f 3 4 33
f 4 34 33
f 4 5 34
f 5 35 34
f 5 6 35
f 6 36 35
f 6 7 36
f 7 37 36
f 7 8 37
f 8 38 37
f 8 9 38
f 9 39 38
f 9 10 39
f 10 40 39
f 10 11 40
f 11 41 40
f 11 12 41
f 12 42 41
f 12 13 42
f 13 43 42
f 13 14 43
f 14 44 43
f 14 15 44
f 15 45 44
f 15 16 45
f 16 46 45
f 16 17 46
f 17 47 46
f 17 18 47
f 18 48 47
f 18 19 48
f 19 49 48
f 19 20 49
f 20 50 49
f 20 21 50
f 21 51 50
f 21 22 51
f 22 52 51
f 22 23 52
f 23 53 52
f 23 24 53
f 24 54 53
f 24 25 54
f 25 55 54
f 25 26 55
f 26 56 55
f 26 27 56
f 27 57 56
f 27 28 57
f 28 58 57
f 28 29 58
f 29 59 58
f 29 30 59
f 30 60 59
f 30 1 60
f 1 31 60
f 31 32 61
f 32 62 61
f 32 33 62
f 33 63 62
f 33 34 63
f 34 64 63
f 34 35 64
f 35 65 64
f 35 36 65
f 36 66 65
f 36 37 66
f 37 67 66
f 37 38 67
f 38 68 67
f 38 39 68
f 39 69 68
f 39 40 69
f 40 70 69
f 40 41 70
f 41 71 70
f 41 42 71
f 42 72 71
f 42 43 72
f 43 73 72
f 43 44 73
f 44 74 73
f 44 45 74
f 45 75 74
f 45 46 75
f 46 76 75
f 46 47 76
f 47 77 76
f 47 48 77
f 48 78 77
f 48 49 78
f 49 79 78
f 49 50 79
f 50 80 79
f 50 51 80
f 51 81 80
f 51 52 81
f 52 82 81
f 52 53 82
f 53 83 82
f 53 54 83
f 54 84 83
f 54 55 84
f 55 85 84
f 55 56 85
f 56 86 85
f 56 57 86
f 57 87 86
f 57 58 87
f 58 88 87
f 58 59 88
f 59 89 88
f 59 60 89
f 60 90 89
f 60 31 90
f 31 61 90
f 61 62 91
f 62 92 91
f 62 63 92
f 63 93 92
f 63 64 93
f 64 94 93
f 64 65 94
f 65 95 94
f 65 66 95
f 66 96 95
f 66 67 96
f 67 97 96
f 67 68 97
f 68 98 97
f 68 69 98
f 69 99 98
f 69 70 99
f 70 100 99
f 70 71 100
f 71 101 100
f 71 72 101
f 72 102 101
f 72 73 102
f 73 103 102
f 73 74 103
f 74 104 103
f 74 75 104
f 75 105 104
f 75 76 105
f 76 106 105
f 76 77 106
f 77 107 106
f 77 78 107
f 78 108 107
f 78 79 108
f 79 109 108
f 79 80 109
f 80 110 109
f 80 81 110
f 81 111 110
f 81 82 111
f 82 112 111
f 82 83 112
f 83 113 112
f 83 84 113
f 84 114 113
f 84 85 114
f 85 115 114
f 85 86 115
f 86 116 115
f 86 87 116
f 87 117 116
f 87 88 117
f 88 118 117
f 88 89 118
f 89 119 118
f 89 90 119
f 90 120 119
f 90 61 120
f 61 91 120
f 91 92 121
f 92 122 121
f 92 93 122
f 93 123 122
f 93 94 123
f 94 124 123
f 94 95 124
f 95 125 124
f 95 96 125
f 96 126 125
f 96 97 126
f 97 127 126
f 97 98 127
f 98 128 127
f 98 99 128
f 99 129 128
f 99 100 129
f 100 130 129
f 100 101 130
f 101 131 130
f 101 102 131
f 102 132 131
f 102 103 132
f 103 133 132
f 103 104 133
f 104 134 133
f 104 105 134
f 105 135 134
f 105 106 135
f 106 136 135
f 106 107 136
f 107 137 136
f 107 108 137
f 108 138 137
f 108 109 138
f 109 139 138
f 109 110 139
f 110 140 139
f 110 111 140
f 111 141 140
f 111 112 141
f 112 142 141
f 112 113 142
f 113 143 142
f 113 114 143
f 114 144 143
f 114 115 144
f 115 145 144
f 115 116 145
f 116 146 145
f 116 117 146
f 117 147 146
f 117 118 147
f 118 148 147
f 118 119 148
f 119 149 148
f 119 120 149
f 120 150 149
f 120 91 150
f 91 121 150
f 121 122 151
f 122 152 151
f 122 123 152
f 123 153 152
f 123 124 153
f 124 154 153
f 124 125 154
f 125 155 154
f 125 126 155
f 126 156 155
f 126 127 156
f 127 157 156
f 127 128 157
f 128 158 157
f 128 129 158
f 129 159 158
f 129 130 159
f 130 160 159
f 130 131 160
f 131 161 160
f 131 132 161
f 132 162 161
f 132 133 162
f 133 163 162
f 133 134 163
f 134 164 163
f 134 135 164
f 135 165 164
f 135 136 165
f 136 166 165
f 136 137 166
f 137 167 166
f 137 138 167
f 138 168 167
f 138 139 168
f 139 169 168
f 139 140 169
f 140 170 169
f 140 141 170
f 141 171 170
f 141 142 171
f 142 172 171
f 142 143 172
f 143 173 172
f 143 144 173
f 144 174 173
f 144 145 174
f 145 175 174
f 145 146 175
f 146 176 175
f 146 147 176
f 147 177 176
f 147 148 177
f 148 178 177
f 148 149 178
f 149 179 178
f 149 150 179
f 150 180 179
f 150 121 180
f 121 151 180
f 151 152 181
f 152 182 181
f 152 153 182
f 153 183 182
f 153 154 183
f 154 184 183
f 154 155 184
f 155 185 184
f 155 156 185
f 156 186 185
f 156 157 186
f 157 187 186
f 157 158 187
f 158 188 187
f 158 159 188
f 159 189 188
f 159 160 189
f 160 190 189
f 160 161 190
f 161 191 190
f 161 162 191
f 162 192 191
f 162 163 192
f 163 193 192
f 163 164 193
f 164 194 193
f 164 165 194
f 165 195 194
f 165 166 195
f 166 196 195
f 166 167 196
f 167 197 196
f 167 168 197
f 168 198 197
f 168 169 198
f 169 199 198
f 169 170 199
f 170 200 199
f 170 171 200
f 171 201 200
f 171 172 201
f 172 202 201
f 172 173 202
f 173 203 202
f 173 174 203
f 174 204 203
f 174 175 204
f 175 205 204
f 175 176 205
f 176 206 205
f 176 177 206
f 177 207 206
f 177 178 207
f 178 208 207
f 178 179 208
f 179 209 208
f 179 180 209
f 180 210 209
f 180 151 210
f 151 181 210
f 181 182 211
f 182 212 211
f 182 183 212
f 183 213 212
f 183 184 213
f 184 214 213
f 184 185 214
f 185 215 214
f 185 186 215
f 186 216 215
f 186 187 216
f 187 217 216
f 187 188 217
f 188 218 217
f 188 189 218
f 189 219 218
f 189 190 219
f 190 220 219
f 190 191 220
f 191 221 220
f 191 192 221
f 192 222 221
f 192 193 222
f 193 223 222
f 193 194 223
f 194 224 223
f 194 195 224
f 195 225 224
f 195 196 225
f 196 226 225
f 196 197 226
f 197 227 226
f 197 198 227
f 198 228 227
f 198 199 228
f 199 229 228
f 199 200 229
f 200 230 229
f 200 201 230
f 201 231 230
f 201 202 231
f 202 232 231
f 202 203 232
f 203 233 232
f 203 204 233
f 204 234 233
f 204 205 234
f 205 235 234
f 205 206 235
f 206 236 235
f 206 207 236
f 207 237 236
f 207 208 237
f 208 238 237
f 208 209 238
f 209 239 238
f 209 210 239
f 210 240 239
f 210 181 240
f 181 211 240
f 211 212 241
f 212 242 241
f 212 213 242
f 213 243 242
f 213 214 243
f 214 244 243
f 214 215 244
f 215 245 244
f 215 216 245
f 216 246 245
f 216 217 246
f 217 247 246
f 217 218 247
f 218 248 247
f 218 219 248
f 219 249 248
f 219 220 249
f 220 250 249
f 220 221 250
f 221 251 250
f 221 222 251
f 222 252 251
f 222 223 252
f 223 253 252
f 223 224 253
f 224 254 253
f 224 225 254
f 225 255 254
f 225 226 255
f 226 256 255
f 226 227 256
f 227 257 256
f 227 228 257
f 228 258 257
f 228 229 258
f 229 259 258
f 229 230 259
f 230 260 259
f 230 231 260
f 231 261 260
f 231 232 261
f 232 262 261
f 232 233 262
f 233 263 262
f 233 234 263
f 234 264 263
f 234 235 264
f 235 265 264
f 235 236 265
f 236 266 265
f 236 237 266
f 237 267 266
f 237 238 267
f 238 268 267
f 238 239 268
f 239 269 268
f 239 240 269
f 240 270 269
f 240 211 270
f 211 241 270
f 241 242 271
f 242 272 271
f 242 243 272
f 243 273 272
f 243 244 273
f 244 274 273
f 244 245 274
f 245 275 274
f 245 246 275
f 246 276 275
f 246 247 276
f 247 277 276
f 247 248 277
f 248 278 277
f 248 249 278
f 249 279 278
f 249 250 279
f 250 280 279
f 250 251 280
f 251 281 280
f 251 252 281
f 252 282 281
f 252 253 282
f 253 283 282
f 253 254 283
f 254 284 283
f 254 255 284
f 255 285 284
f 255 256 285
f 256 286 285
f 256 257 286
f 257 287 286
f 257 258 287
f 258 288 287
f 258 259 288
f 259 289 288
f 259 260 289
f 260 290 289
f 260 261 290
f 261 291 290
f 261 262 291
f 262 292 291
f 262 263 292
f 263 293 292
f 263 264 293
f 264 294 293
f 264 265 294
f 265 295 294
f 265 266 295
f 266 296 295
f 266 267 296
f 267 297 296
f 267 268 297
f 268 298 297
f 268 269 298
f 269 299 298
f 269 270 299
f 270 300 299
f 270 241 300
f 241 271 300
f 271 272 301
f 272 302 301
f 272 273 302
f 273 303 302
f 273 274 303
f 274 304 303
f 274 275 304
f 275 305 304
f 275 276 305
f 276 306 305
f 276 277 306
f 277 307 306
f 277 278 307
f 278 308 307
f 278 279 308
f 279 309 308
f 279 280 309
f 280 310 309
f 280 281 310
f 281 311 310
f 281 282 311
f 282 312 311
f 282 283 312
f 283 313 312
f 283 284 313
f 284 314 313
f 284 285 314
f 285 315 314
f 285 286 315
f 286 316 315
f 286 287 316
f 287 317 316
f 287 288 317
f 288 318 317
f 288 289 318
f 289 319 318
f 289 290 319
f 290 320 319
f 290 291 320
f 291 321 320
f 291 292 321
f 292 322 321
f 292 293 322
f 293 323 322
f 293 294 323
f 294 324 323
f 294 295 324
f 295 325 324
f 295 296 325
f 296 326 325
f 296 297 326
f 297 327 326
f 297 298 327
f 298 328 327
f 298 299 328
f 299 329 328
f 299 300 329
f 300 330 329
f 300 271 330
f 271 301 330
f 301 302 331
f 302 332 331
f 302 303 332
f 303 333 332
f 303 304 333
f 304 334 333
f 304 305 334
f 305 335 334
f 305 306 335
f 306 336 335
f 306 307 336
f 307 337 336
f 307 308 337
f 308 338 337
f 308 309 338
f 309 339 338
f 309 310 339
f 310 340 339
f 310 311 340
f 311 341 340
f 311 312 341
f 312 342 341
f 312 313 342
f 313 343 342
f 313 314 343
f 314 344 343
f 314 315 344
f 315 345 344
f 315 316 345
f 316 346 345
f 316 317 346
f 317 347 346
f 317 318 347
f 318 348 347
f 318 319 348
f 319 349 348
f 319 320 349
f 320 350 349
f 320 321 350
f 321 351 350
f 321 322 351
f 322 352 351
f 322 323 352
f 323 353 352
f 323 324 353
f 324 354 353
f 324 325 354
f 325 355 354
f 325 326 355
f 326 356 355
f 326 327 356
f 327 357 356
f 327 328 357
f 328 358 357
f 328 329 358
f 329 359 358
f 329 330 359
f 330 360 359
f 330 301 360
f 301 331 360
f 331 332 361
f 332 362 361
f 332 333 362
f 333 363 362
f 333 334 363
f 334 364 363
f 334 335 364
f 335 365 364
f 335 336 365
f 336 366 365
f 336 337 366
f 337 367 366
f 337 338 367
f 338 368 367
f 338 339 368
f 339 369 368
f 339 340 369
f 340 370 369
f 340 341 370
f 341 371 370
f 341 342 371
f 342 372 371
f 342 343 372
f 343 373 372
f 343 344 373
f 344 374 373
f 344 345 374
f 345 375 374
f 345 346 375
f 346 376 375
f 346 347 376
f 347 377 376
f 347 348 377
f 348 378 377
f 348 349 378
f 349 379 378
f 349 350 379
f 350 380 379
f 350 351 380
f 351 381 380
f 351 352 381
f 352 382 381
f 352 353 382
f 353 383 382
f 353 354 383
f 354 384 383
f 354 355 384
f 355 385 384
f 355 356 385
f 356 386 385
f 356 357 386
f 357 387 386
f 357 358 387
f 358 388 387
f 358 359 388
f 359 389 388
f 359 360 389
f 360 390 389
f 360 331 390
f 331 361 390
f 361 362 391
f 362 392 391
f 362 363 392
f 363 393 392
f 363 364 393
f 364 394 393
f 364 365 394
f 365 395 394
f 365 366 395
f 366 396 395
f 366 367 396
f 367 397 396
f 367 368 397
f 368 398 397
f 368 369 398
f 369 399 398
f 369 370 399
f 370 400 399
f 370 371 400
f 371 401 400
f 371 372 401
f 372 402 401
f 372 373 402
f 373 403 402
f 373 374 403
f 374 404 403
f 374 375 404
f 375 405 404
f 375 376 405
f 376 406 405
f 376 377 406
f 377 407 406
f 377 378 407
f 378 408 407
f 378 379 408
f 379 409 408
f 379 380 409
f 380 410 409
f 380 381 410
f 381 411 410
f 381 382 411
f 382 412 411
f 382 383 412
f 383 413 412
f 383 384 413
f 384 414 413
f 384 385 414
f 385 415 414
f 385 386 415
f 386 416 415
f 386 387 416
f 387 417 416
f 387 388 417
f 388 418 417
f 388 389 418
f 389 419 418
f 389 390 419
f 390 420 419
f 390 361 420
f 361 391 420
f 391 392 421
f 392 422 421
f 392 393 422
f 393 423 422
f 393 394 423
f 394 424 423
f 394 395 424
f 395 425 424
f 395 396 425
f 396 426 425
f 396 397 426
f 397 427 426
f 397 398 427
f 398 428 427
f 398 399 428
f 399 429 428
f 399 400 429
f 400 430 429
f 400 401 430
f 401 431 430
f 401 402 431
f 402 432 431
f 402 403 432
f 403 433 432
f 403 404 433
f 404 434 433
f 404 405 434
f 405 435 434
f 405 406 435
f 406 436 435
f 406 407 436
f 407 437 436
f 407 408 437
f 408 438 437
f 408 409 438
f 409 439 438
f 409 410 439
f 410 440 439
f 410 411 440
f 411 441 440
f 411 412 441
f 412 442 441
f 412 413 442
f 413 443 442
f 413 414 443
f 414 444 443
f 414 415 444
f 415 445 444
f 415 416 445
f 416 446 445
f 416 417 446
f 417 447 446
f 417 418 447
f 418 448 447
f 418 419 448
f 419 449 448
f 419 420 449
f 420 450 449
f 420 391 450
f 391 421 450
f 421 422 451
f 422 452 451
f 422 423 452
f 423 453 452
f 423 424 453
f 424 454 453
f 424 425 454
f 425 455 454
f 425 426 455
f 426 456 455
f 426 427 456
f 427 457 456
f 427 428 457
f 428 458 457
f 428 429 458
f 429 459 458
f 429 430 459
f 430 460 459
f 430 431 460
f 431 461 460
f 431 432 461
f 432 462 461
f 432 433 462
f 433 463 462
f 433 434 463
f 434 464 463
f 434 435 464
f 435 465 464
f 435 436 465
f 436 466 465
f 436 437 466
f 437 467 466
f 437 438 467
f 438 468 467
f 438 439 468
f 439 469 468
f 439 440 469
f 440 470 469
f 440 441 470
f 441 471 470
f 441 442 471
f 442 472 471
f 442 443 472
f 443 473 472
f 443 444 473
f 444 474 473
f 444 445 474
f 445 475 474
f 445 446 475
f 446 476 475
f 446 447 476
f 447 477 476
f 447 448 477
f 448 478 477
f 448 449 478
f 449 479 478
f 449 450 479
f 450 480 479
f 450 421 480
f 421 451 480
f 451 452 481
f 452 482 481
f 452 453 482
f 453 483 482
f 453 454 483
f 454 484 483
f 454 455 484
f 455 485 484
f 455 456 485
f 456 486 485
f 456 457 486
f 457 487 486
f 457 458 487
f 458 488 487
f 458 459 488
f 459 489 488
f 459 460 489
f 460 490 489
f 460 461 490
f 461 491 490
f 461 462 491
f 462 492 491
f 462 463 492
f 463 493 492
f 463 464 493
f 464 494 493
f 464 465 494
f 465 495 494
f 465 466 495
f 466 496 495
f 466 467 496
f 467 497 496
f 467 468 497
f 468 498 497
f 468 469 498
f 469 499 498
f 469 470 499
f 470 500 499
f 470 471 500
f 471 501 500
f 471 472 501
f 472 502 501
f 472 473 502
f 473 503 502
f 473 474 503
f 474 504 503
f 474 475 504
f 475 505 504
f 475 476 505
f 476 506 505
f 476 477 506
f 477 507 506
f 477 478 507
f 478 508 507
f 478 479 508
f 479 509 508
f 479 480 509
f 480 510 509
f 480 451 510
f 451 481 510
f 481 482 511
f 482 512 511
f 482 483 512
f 483 513 512
f 483 484 513
f 484 514 513
f 484 485 514
f 485 515 514
f 485 486 515
f 486 516 515
f 486 487 516
f 487 517 516
f 487 488 517
f 488 518 517
f 488 489 518
f 489 519 518
f 489 490 519
f 490 520 519
f 490 491 520
f 491 521 520
f 491 492 521
f 492 522 521
f 492 493 522
f 493 523 522
f 493 494 523
f 494 524 523
f 494 495 524
f 495 525 524
f 495 496 525
f 496 526 525
f 496 497 526
f 497 527 526
f 497 498 527
f 498 528 527
f 498 499 528
f 499 529 528
f 499 500 529
f 500 530 529
f 500 501 530
f 501 531 530
f 501 502 531
f 502 532 531
f 502 503 532
f 503 533 532
f 503 504 533
f 504 534 533
f 504 505 534
f 505 535 534
f 505 506 535
f 506 536 535
f 506 507 536
f 507 537 536
f 507 508 537
f 508 538 537
f 508 509 538
f 509 539 538
f 509 510 539
f 510 540 539
f 510 481 540
f 481 511 540
f 511 512 541
f 512 542 541
f 512 513 542
f 513 543 542
f 513 514 543
f 514 544 543
f 514 515 544
f 515 545 544
f 515 516 545
f 516 546 545
f 516 517 546
f 517 547 546
f 517 518 547
f 518 548 547
f 518 519 548
f 519 549 548
f 519 520 549
f 520 550 549
f 520 521 550
f 521 551 550
f 521 522 551
f 522 552 551
f 522 523 552
f 523 553 552
f 523 524 553
f 524 554 553
f 524 525 554
f 525 555 554
f 525 526 555
f 526 556 555
f 526 527 556
f 527 557 556
f 527 528 557
f 528 558 557
f 528 529 558
f 529 559 558
f 529 530 559
f 530 560 559
f 530 531 560
f 531 561 560
f 531 532 561
f 532 562 561
f 532 533 562
f 533 563 562
f 533 534 563
f 534 564 563
f 534 535 564
f 535 565 564
f 535 536 565
f 536 566 565
f 536 537 566
f 537 567 566
f 537 538 567
f 538 568 567
f 538 539 568
f 539 569 568
f 539 540 569
f 540 570 569
f 540 511 570
f 511 541 570
f 541 571 542
f 542 571 543
f 543 571 544
f 544 571 545
f 545 571 546
f 546 571 547
f 547 571 548
f 548 571 549
f 549 571 550
f 550 571 551
f 551 571 552
f 552 571 553
f 553 571 554
f 554 571 555
f 555 571 556
f 556 571 557
f 557 571 558
f 558 571 559
f 559 571 560
f 560 571 561
f 561 571 562
f 562 571 563
f 563 571 564
f 564 571 565
f 565 571 566
f 566 571 567
f 567 571 568
f 568 571 569
f 569 571 570
f 570 571 541

# triangles: 1140
